<?xml version="1.0" encoding="utf-8" ?><svg xmlns="http://www.w3.org/2000/svg" xmlns:xlink="http://www.w3.org/1999/xlink" width="558" height="536" viewBox="0 0 558 536"><clipPath id="cl_3"><rect x="0.00010681152" y="-1.5258789e-05" width="558" height="536"/></clipPath><g clip-path="url(#cl_3)"><path transform="matrix(0.741036 0 0 0.740332 -223.793 -166.575)" d="M600.082 244.849C606.578 243.917 631.703 244.664 639.067 244.734L706.189 244.76L967.314 244.752C983.719 244.712 1013.92 243.5 1030.6 246.139C1033.81 246.646 1036.12 252.566 1037.33 255.622C1034.48 267.383 1024.37 290.436 1019.28 302.682C1012.56 318.812 1003.94 342.244 995.662 357.021C991.633 364.272 986.599 370.917 980.71 376.759C955.493 401.812 925.814 400.343 893.436 400.273L841.168 400.23L641.821 400.246C603.049 400.203 601.87 410.529 575.213 434.05C519.743 482.992 464.776 532.531 409.457 581.638C406.654 584.126 401.331 588.086 397.765 589.228C396.468 588.901 395.624 588.723 394.582 587.825C393.501 586.893 393.106 585.159 393.042 583.802C392.733 577.326 413.281 512.926 416.502 501.828L446.039 400.048C451.901 379.734 456.965 358.975 464.534 339.232C480.019 298.844 514.065 265.391 555.614 252.59C571.093 247.822 584.05 246.259 600.082 244.849Z"/><path transform="matrix(0.741036 0 0 0.740332 -223.793 -166.575)" d="M622.412 482.59C629.146 482.164 639.043 482.44 645.989 482.442L689.503 482.447L822.978 482.461L910.197 482.459C924.764 482.442 939.66 481.846 954.147 482.892C964.184 483.617 966.328 490.575 964.222 499.225C960.921 512.786 954.133 525.253 949.377 538.231C936.715 572.776 930.022 602.899 897.003 624.472C867.851 640.929 843.513 638.181 811.627 638.029L749.485 637.939C695.448 637.893 641.322 638.091 587.28 637.981C582.507 637.639 576.361 638.107 571.814 636.822C567.967 635.733 567.57 628.723 568.312 625.672C569.975 618.831 572.166 612.145 574.225 605.43L583.717 573.813C589.38 554.415 595.296 535.091 601.464 515.846C604.119 507.64 608.084 494.718 611.563 487.279C615.575 484.616 617.857 483.778 622.412 482.59Z"/><path transform="matrix(0.741036 0 0 0.740332 -223.793 -166.575)" d="M571.945 521.363C573.59 521.441 573.517 521.514 575.119 521.919C576.937 523.876 577.182 525.677 576.919 528.415C575.851 539.541 570.355 550.922 567.116 561.432C562.906 575.096 558.823 588.69 554.705 602.32L518.547 723.608C510.79 749.826 502.083 783.307 490.938 807.444C482.157 826.746 469.481 844.024 453.705 858.196C412.587 894.674 368.507 898.432 315.95 895.245C305.809 888.226 310.24 877.32 313.506 867.552C320.035 848.024 325.49 828.267 331.419 808.562L348.811 750.645C350.709 744.114 359.557 711.894 361.694 709.357C377.836 690.199 407.728 666.27 426.741 649.548L514.784 571.86C533.992 554.955 553.092 538.704 571.945 521.363Z"/></g></svg>